mtllib flatlandtest.mtl
o Default
v 0 0.000356176874899462 0.00004999999974997227
v 0 0.0019561768668985746 -15.999949920000251
v 17 0.0019561768668985746 -15.999949920000251
v 17 0.000356176874899462 0.00004999999974997227
vt 0 0
vt 1.0625 1
vt 0 1
vt 0 0
vt 1.0625 0
vt 1.0625 1
vn 0 0.999999995 0.00009999999949994454
vn 0 0.999999995 0.00009999999949994454
vn 0 0.999999995 0.00009999999949994454
vn 0 0.999999995 0.00009999999949994454
vn 0 0.999999995 0.00009999999949994454
vn 0 0.999999995 0.00009999999949994454
g Scene
usemtl material1
f 1/1/1 3/2/2 2/3/3
f 1/4/4 4/5/5 3/6/6
