# Blender v2.82 (sub 7) OBJ File: 'Rocktest.blend'
# www.blender.org
mtllib Rocktest.mtl
o Cube
v 1.000000 1.000000 -1.000000
v 1.000000 -1.000000 -1.000000
v 1.000000 1.000000 1.000000
v 1.000000 -1.000000 1.000000
v -1.000000 1.000000 -1.000000
v -1.000000 -1.000000 -1.000000
v -1.000000 1.000000 1.000000
v -1.000000 -1.000000 1.000000
vt 0.328479 0.671521
vt 0.328479 0.995146
vt 0.004854 0.995146
vt 0.004854 0.671521
vt 0.338188 0.661812
vt 0.338188 0.338188
vt 0.661812 0.338188
vt 0.661812 0.661812
vt 0.661812 0.328479
vt 0.338188 0.328479
vt 0.338188 0.004854
vt 0.661812 0.004854
vt 0.995146 0.328479
vt 0.671521 0.328479
vt 0.671521 0.004854
vt 0.995146 0.004854
vt 0.328479 0.328479
vt 0.004854 0.328479
vt 0.004854 0.004854
vt 0.328479 0.004854
vt 0.328479 0.661812
vt 0.004854 0.661812
vt 0.004854 0.338188
vt 0.328479 0.338188
vn 0.0000 1.0000 0.0000
vn 0.0000 0.0000 1.0000
vn -1.0000 0.0000 0.0000
vn 0.0000 -1.0000 0.0000
vn 1.0000 0.0000 0.0000
vn 0.0000 0.0000 -1.0000
usemtl Material
s off
f 1/1/1 5/2/1 7/3/1 3/4/1
f 4/5/2 3/6/2 7/7/2 8/8/2
f 8/9/3 7/10/3 5/11/3 6/12/3
f 6/13/4 2/14/4 4/15/4 8/16/4
f 2/17/5 1/18/5 3/19/5 4/20/5
f 6/21/6 5/22/6 1/23/6 2/24/6
